<svg width="6" height="6" xmlns="http://www.w3.org/2000/svg" version="1.1">
 <g>
  <title>Layer 1</title>
  <path id="svg_1" d="m1.92535,-0.01061c0.34741,-0.05005 0.71544,0.32975 0.82143,0.85381c0.10599,0.52112 -0.08538,0.9863 -0.43279,1.0393c-0.34447,0.053 -0.71544,-0.3268 -0.82437,-0.85087c-0.10893,-0.52112 0.08833,-0.9863 0.43574,-1.04224m2.10509,0c0.35036,0.05594 0.54467,0.52112 0.44163,1.04224c-0.11188,0.52406 -0.4799,0.90386 -0.82731,0.85087c-0.35036,-0.053 -0.54173,-0.51818 -0.43279,-1.0393c0.10599,-0.52406 0.47401,-0.90386 0.81848,-0.85381m-3.68023,1.35432c0.33564,-0.14426 0.79198,0.11777 1.03046,0.57412c0.22376,0.46518 0.14721,0.95391 -0.18548,1.09818c-0.33269,0.14426 -0.7861,-0.11482 -1.01869,-0.57706c-0.23259,-0.46224 -0.15015,-0.95391 0.17371,-1.09524m5.29953,0c0.32386,0.14132 0.4063,0.633 0.17371,1.09524c-0.23259,0.46224 -0.68599,0.72132 -1.01869,0.57706c-0.33269,-0.14426 -0.40924,-0.633 -0.18548,-1.09818c0.23848,-0.45635 0.69483,-0.71838 1.03046,-0.57412m-0.49168,3.17383c0.01178,0.27675 -0.2002,0.58295 -0.4534,0.69777c-0.52701,0.24142 -1.15117,-0.25909 -1.73707,-0.25909c-0.58589,0 -1.21595,0.52112 -1.73412,0.25909c-0.29442,-0.14426 -0.49757,-0.52701 -0.45929,-0.84498c0.053,-0.43868 0.58,-0.67422 0.89209,-0.99513c0.41513,-0.41513 0.70955,-1.19534 1.30133,-1.19534c0.58884,0 0.90092,0.76843 1.29838,1.19534c0.3268,0.35919 0.87148,0.66244 0.89209,1.14234l-0.00001,0z" stroke="null"/>
 </g>

</svg>